<svg id="visual" viewBox="0 0 900 600" width="900" height="600" xmlns="http://www.w3.org/2000/svg" xmlns:xlink="http://www.w3.org/1999/xlink" version="1.1"><rect x="0" y="0" width="900" height="600" fill="#001220"></rect><defs><linearGradient id="grad1_0" x1="33.3%" y1="0%" x2="100%" y2="100%"><stop offset="20%" stop-color="#001220" stop-opacity="1"></stop><stop offset="80%" stop-color="#001220" stop-opacity="1"></stop></linearGradient></defs><defs><linearGradient id="grad2_0" x1="0%" y1="0%" x2="66.7%" y2="100%"><stop offset="20%" stop-color="#001220" stop-opacity="1"></stop><stop offset="80%" stop-color="#001220" stop-opacity="1"></stop></linearGradient></defs><g transform="translate(900, 0)"><path d="M0 486.7C-51.8 443.2 -103.7 399.7 -154.2 372.3C-204.8 345 -254 333.8 -307.6 307.6C-361.2 281.4 -419.1 240 -449.7 186.3C-480.3 132.5 -483.5 66.2 -486.7 0L0 0Z" fill="#a62659"></path></g><g transform="translate(0, 600)"><path d="M0 -486.7C67.7 -481.7 135.5 -476.7 184.1 -444.4C232.7 -412.1 262.2 -352.5 308.3 -308.3C354.4 -264.1 417.2 -235.1 449.7 -186.3C482.2 -137.4 484.5 -68.7 486.7 0L0 0Z" fill="#a62659"></path></g></svg>