<svg id="visual" viewBox="0 0 900 600" width="900" height="600" xmlns="http://www.w3.org/2000/svg" xmlns:xlink="http://www.w3.org/1999/xlink" version="1.1"><rect x="0" y="0" width="900" height="600" fill="#001220"></rect><path d="M0 436L21.5 433.3C43 430.7 86 425.3 128.8 425C171.7 424.7 214.3 429.3 257.2 424.7C300 420 343 406 385.8 405.8C428.7 405.7 471.3 419.3 514.2 415.7C557 412 600 391 642.8 379C685.7 367 728.3 364 771.2 363.7C814 363.3 857 365.7 878.5 366.8L900 368L900 601L878.5 601C857 601 814 601 771.2 601C728.3 601 685.7 601 642.8 601C600 601 557 601 514.2 601C471.3 601 428.7 601 385.8 601C343 601 300 601 257.2 601C214.3 601 171.7 601 128.8 601C86 601 43 601 21.5 601L0 601Z" fill="#c62368"></path><path d="M0 398L21.5 405.7C43 413.3 86 428.7 128.8 434.3C171.7 440 214.3 436 257.2 431.7C300 427.3 343 422.7 385.8 428C428.7 433.3 471.3 448.7 514.2 445.8C557 443 600 422 642.8 423.7C685.7 425.3 728.3 449.7 771.2 451.7C814 453.7 857 433.3 878.5 423.2L900 413L900 601L878.5 601C857 601 814 601 771.2 601C728.3 601 685.7 601 642.8 601C600 601 557 601 514.2 601C471.3 601 428.7 601 385.8 601C343 601 300 601 257.2 601C214.3 601 171.7 601 128.8 601C86 601 43 601 21.5 601L0 601Z" fill="#d53867"></path><path d="M0 505L21.5 501.3C43 497.7 86 490.3 128.8 489.2C171.7 488 214.3 493 257.2 492.2C300 491.3 343 484.7 385.8 478.2C428.7 471.7 471.3 465.3 514.2 467.8C557 470.3 600 481.7 642.8 480C685.7 478.3 728.3 463.7 771.2 459.5C814 455.3 857 461.7 878.5 464.8L900 468L900 601L878.5 601C857 601 814 601 771.2 601C728.3 601 685.7 601 642.8 601C600 601 557 601 514.2 601C471.3 601 428.7 601 385.8 601C343 601 300 601 257.2 601C214.3 601 171.7 601 128.8 601C86 601 43 601 21.5 601L0 601Z" fill="#e34c67"></path><path d="M0 528L21.5 524.5C43 521 86 514 128.8 514.2C171.7 514.3 214.3 521.7 257.2 524.3C300 527 343 525 385.8 520.8C428.7 516.7 471.3 510.3 514.2 505.3C557 500.3 600 496.7 642.8 495.7C685.7 494.7 728.3 496.3 771.2 499.8C814 503.3 857 508.7 878.5 511.3L900 514L900 601L878.5 601C857 601 814 601 771.2 601C728.3 601 685.7 601 642.8 601C600 601 557 601 514.2 601C471.3 601 428.7 601 385.8 601C343 601 300 601 257.2 601C214.3 601 171.7 601 128.8 601C86 601 43 601 21.5 601L0 601Z" fill="#ef5f67"></path><path d="M0 551L21.5 549.3C43 547.7 86 544.3 128.8 545.7C171.7 547 214.3 553 257.2 558.3C300 563.7 343 568.3 385.8 567.2C428.7 566 471.3 559 514.2 556.5C557 554 600 556 642.8 557.2C685.7 558.3 728.3 558.7 771.2 557.2C814 555.7 857 552.3 878.5 550.7L900 549L900 601L878.5 601C857 601 814 601 771.2 601C728.3 601 685.7 601 642.8 601C600 601 557 601 514.2 601C471.3 601 428.7 601 385.8 601C343 601 300 601 257.2 601C214.3 601 171.7 601 128.8 601C86 601 43 601 21.5 601L0 601Z" fill="#fa7268"></path></svg>